<?xml version="1.0" encoding="UTF-8"?>
<svg width="346px" height="105px" viewBox="0 0 346 105" version="1.1" xmlns="http://www.w3.org/2000/svg" xmlns:xlink="http://www.w3.org/1999/xlink">
    <!-- Generator: Sketch 41 (35326) - http://www.bohemiancoding.com/sketch -->
    <title>Group</title>
    <desc>Created with Sketch.</desc>
    <defs>
        <polygon id="path-1" points="11.8251713 0.341818182 0.0709137725 0.341818182 0.0709137725 19.8543636 11.8251713 19.8543636 11.8251713 0.341818182"></polygon>
        <polygon id="path-3" points="0.024160479 19.5454545 13.6849749 19.5454545 13.6849749 0.332045455 0.024160479 0.332045455"></polygon>
        <polygon id="path-5" points="12.0854497 0.341818182 0.331192216 0.341818182 0.331192216 19.8543636 12.0854497 19.8543636 12.0854497 0.341818182"></polygon>
        <polygon id="path-7" points="19.9223437 0.341818182 0.231553293 0.341818182 0.231553293 19.8544545 19.9223437 19.8544545 19.9223437 0.341818182"></polygon>
        <polygon id="path-9" points="10.1676886 14.8008636 10.1676886 0.1545 0.322108982 0.1545 0.322108982 14.8008636 10.1676886 14.8008636"></polygon>
        <linearGradient x1="36.497018%" y1="100%" x2="66.9430744%" y2="18.9062606%" id="linearGradient-11">
            <stop stop-color="#4450C2" offset="0%"></stop>
            <stop stop-color="#597EFF" offset="100%"></stop>
        </linearGradient>
        <linearGradient x1="79.4455924%" y1="32.5060339%" x2="14.473848%" y2="82.4576664%" id="linearGradient-12">
            <stop stop-color="#1BE6C3" offset="0%"></stop>
            <stop stop-color="#0E9981" offset="100%"></stop>
        </linearGradient>
        <linearGradient x1="50%" y1="0%" x2="50%" y2="100%" id="linearGradient-13">
            <stop stop-color="#FF6127" offset="0%"></stop>
            <stop stop-color="#FF2A73" offset="100%"></stop>
        </linearGradient>
        <linearGradient x1="80.4746591%" y1="21.9281048%" x2="26.4267612%" y2="71.4956103%" id="linearGradient-14">
            <stop stop-color="#FFDA00" offset="0%"></stop>
            <stop stop-color="#F79E00" offset="100%"></stop>
        </linearGradient>
    </defs>
    <g id="Page-1" stroke="none" stroke-width="1" fill="none" fill-rule="evenodd">
        <g id="Index" transform="translate(-585.000000, -139.000000)">
            <g id="banner">
                <g id="Group" transform="translate(585.000000, 128.000000)">
                    <g id="Page-1" opacity="0.800000012" transform="translate(192.000000, 41.000000)">
                        <polygon id="Fill-1" fill="#3E3A39" points="0.00041497006 0.454681818 0.00041497006 3.76559091 5.13820539 3.76559091 5.13820539 19.9669545 9.10762455 19.9669545 9.10762455 3.76559091 14.2463371 3.76559091 14.2463371 0.454681818"></polygon>
                        <g id="Group-29" transform="translate(15.676647, 0.112682)">
                            <g id="Group-4">
                                <mask id="mask-2" fill="white">
                                    <use xlink:href="#path-1"></use>
                                </mask>
                                <g id="Clip-3"></g>
                                <path d="M3.83561437,7.26345455 C5.03257246,6.288 6.50756048,5.50981818 8.08582994,5.50981818 C9.63735689,5.50981818 11.8251713,6.43663636 11.8251713,9.89845455 L11.8251713,19.8543636 L8.05908743,19.8543636 L8.05908743,11.4002727 C8.05908743,10.2725455 8.13516527,8.49390909 6.50756048,8.49390909 C5.41388383,8.49390909 4.54751856,9.27072727 3.83561437,10.023 L3.83561437,19.8543636 L0.0709137725,19.8543636 L0.0709137725,0.341636364 L3.83561437,0.341636364 L3.83561437,7.26345455" id="Fill-2" fill="#3E3A39" mask="url(#mask-2)"></path>
                            </g>
                            <path d="M22.0270257,12.8320909 C22.0270257,11.0739091 21.6706126,8.24345455 19.6349539,8.24345455 C17.5997563,8.24345455 17.2442653,11.0739091 17.2442653,12.8320909 C17.2442653,14.5898182 17.5997563,17.4225455 19.6349539,17.4225455 C21.6706126,17.4225455 22.0270257,14.5898182 22.0270257,12.8320909 M13.3762832,12.8320909 C13.3762832,9.09481818 15.4631216,5.50981818 19.6349539,5.50981818 C23.8077084,5.50981818 25.8945467,9.09481818 25.8945467,12.8320909 C25.8945467,16.5443636 23.7832713,20.1557273 19.6349539,20.1557273 C15.4889419,20.1557273 13.3762832,16.5443636 13.3762832,12.8320909" id="Fill-5" fill="#3E3A39"></path>
                            <path d="M35.5351772,18.3998182 C34.3400635,19.3784545 32.8632311,20.1557273 31.2872671,20.1557273 C29.734818,20.1557273 27.5474647,19.2275455 27.5474647,15.7675455 L27.5474647,5.808 L31.3130874,5.808 L31.3130874,14.2620909 C31.3130874,15.3898182 31.2374707,17.1707273 32.8632311,17.1707273 C33.9596743,17.1707273 34.8237341,16.3939091 35.5351772,15.6425455 L35.5351772,5.808 L39.3012611,5.808 L39.3012611,19.8543636 L35.5351772,19.8543636 L35.5351772,18.3998182" id="Fill-7" fill="#3E3A39"></path>
                            <g id="Group-11" transform="translate(40.574850, 5.000000)">
                                <mask id="mask-4" fill="white">
                                    <use xlink:href="#path-3"></use>
                                </mask>
                                <g id="Clip-10"></g>
                                <path d="M6.28329222,7.8825 C7.85971737,7.8825 8.31802874,6.60522727 8.31802874,5.2725 C8.31802874,3.99386364 7.7071006,2.91522727 6.28329222,2.91522727 C4.70594491,2.91522727 4.2213521,4.21977273 4.2213521,5.54886364 C4.2213521,6.82840909 4.83274132,7.8825 6.28329222,7.8825 L6.28329222,7.8825 Z M3.68788503,14.8806818 C3.33239401,15.1056818 3.1036994,15.3065909 3.1036994,15.7579545 C3.1036994,17.0615909 5.7738012,17.1365909 6.66322036,17.1365909 C7.29996886,17.1365909 10.6077413,17.0615909 10.6077413,15.9338636 C10.6077413,15.2052273 10.1000946,15.2825 7.85971737,15.1556818 L3.68788503,14.8806818 Z M4.8829988,10.2402273 C4.45004671,10.2402273 3.81468144,10.4634091 3.81468144,11.1184091 C3.81468144,12.9475 13.6849749,9.76340909 13.6849749,15.2556818 C13.6849749,17.3370455 12.2616275,19.5456818 6.61388503,19.5456818 C1.70340599,19.5456818 0.024160479,17.8388636 0.024160479,16.0093182 C0.024160479,14.9284091 0.711627545,14.3788636 1.57660958,13.8765909 C0.965220359,13.4247727 0.455729341,12.8993182 0.455729341,12.0961364 C0.455729341,10.7175 1.21973533,9.98977273 2.31387305,9.28704545 C1.2722982,8.28477273 0.531807186,7.03068182 0.531807186,5.42340909 C0.531807186,2.31340909 3.20237006,0.509772727 6.28329222,0.509772727 C7.52912455,0.509772727 8.72516048,0.860681818 9.79393892,1.48568182 C10.5574838,0.784772727 11.2435677,0.332045455 12.3635257,0.332045455 C12.7204,0.332045455 13.1017114,0.358409091 13.4567413,0.432954545 L13.4567413,3.04204545 C13.0754299,2.89159091 12.6696814,2.74113636 12.2616275,2.74113636 C11.8535737,2.74113636 11.5999808,2.86613636 11.2435677,3.04204545 C11.6506994,3.79340909 11.9817533,4.62113636 12.0071126,5.42340909 C12.0071126,8.53386364 9.36237006,10.3402273 6.28329222,10.3402273 L4.8829988,10.2402273 L4.8829988,10.2402273 Z" id="Fill-9" fill="#3E3A39" mask="url(#mask-4)"></path>
                            </g>
                            <g id="Group-14" transform="translate(55.329341, 0.000000)">
                                <mask id="mask-6" fill="white">
                                    <use xlink:href="#path-5"></use>
                                </mask>
                                <g id="Clip-13"></g>
                                <path d="M4.09543174,7.26345455 C5.29192874,6.288 6.76783892,5.50981818 8.34564731,5.50981818 C9.89809641,5.50981818 12.0854497,6.43663636 12.0854497,9.89845455 L12.0854497,19.8543636 L8.3207491,19.8543636 L8.3207491,11.4002727 C8.3207491,10.2725455 8.39498263,8.49390909 6.76783892,8.49390909 C5.67416228,8.49390909 4.80825808,9.27072727 4.09543174,10.023 L4.09543174,19.8543636 L0.331192216,19.8543636 L0.331192216,0.341636364 L4.09543174,0.341636364 L4.09543174,7.26345455" id="Fill-12" fill="#3E3A39" mask="url(#mask-6)"></path>
                            </g>
                            <path d="M74.2585234,5.80795455 L77.1831401,5.80795455 L77.1831401,8.89431818 L74.2585234,8.89431818 L74.2585234,16.0434091 C74.2585234,16.7193182 74.4600144,17.4225 75.6832539,17.4225 C76.3186192,17.4225 76.7257509,17.1706818 77.1831401,16.8970455 L77.1831401,19.7302273 C76.3942359,19.9556818 75.5818168,20.1556818 74.7670922,20.1556818 C72.4257389,20.1556818 70.4919784,18.8502273 70.4919784,15.7920455 L70.4919784,8.89431818 L68.7352719,8.89431818 L68.7352719,5.80795455 L70.4919784,5.80795455 L70.4919784,2.29795455 L74.2585234,2.29795455 L74.2585234,5.80795455" id="Fill-15" fill="#3E3A39"></path>
                            <g id="Group-19" transform="translate(77.461078, 0.000000)">
                                <mask id="mask-8" fill="white">
                                    <use xlink:href="#path-7"></use>
                                </mask>
                                <g id="Clip-18"></g>
                                <polygon id="Fill-17" fill="#3E3A39" mask="url(#mask-8)" points="15.393176 19.8544545 13.3584395 19.8544545 10.0008707 3.90172727 9.95061317 3.90172727 6.4123018 19.8544545 4.37940958 19.8544545 0.231553293 0.341727273 2.21511018 0.341727273 5.47354731 16.0935455 5.52288263 16.0935455 9.0842479 0.341727273 11.0447509 0.341727273 14.4262958 16.0935455 14.4783976 16.0935455 17.963685 0.341727273 19.9223437 0.341727273"></polygon>
                            </g>
                            <path d="M105.778404,12.9317727 C105.778404,10.5735909 105.193757,7.26359091 102.141422,7.26359091 C99.0877036,7.26359091 98.503518,10.5735909 98.503518,12.9317727 C98.503518,15.2922273 99.0877036,18.6017727 102.141422,18.6017727 C105.193757,18.6017727 105.778404,15.2922273 105.778404,12.9317727 M96.5176557,12.9317727 C96.5176557,7.74131818 99.013009,5.60904545 102.141422,5.60904545 C105.269835,5.60904545 107.763344,7.74131818 107.763344,12.9317727 C107.763344,18.1245 105.269835,20.2554091 102.141422,20.2554091 C99.013009,20.2554091 96.5176557,18.1245 96.5176557,12.9317727" id="Fill-20" fill="#3E3A39"></path>
                            <path d="M111.299166,8.994 L111.351268,8.994 C112.140633,7.34127273 113.15731,5.80809091 115.244148,5.80809091 L116.00631,5.80809091 L116.00631,7.59036364 C113.411363,7.23945455 112.063172,9.99581818 111.299166,12.0044545 L111.299166,19.8544545 L109.315148,19.8544545 L109.315148,6.01081818 L111.299166,6.01081818 L111.299166,8.994" id="Fill-22" fill="#3E3A39"></path>
                            <polygon id="Fill-24" fill="#3E3A39" points="119.59451 12.4315 124.809761 6.01104545 127.023857 6.01104545 123.155875 10.7501364 127.60712 19.8546818 125.471408 19.8546818 121.882378 12.3305909 119.59451 15.1146818 119.59451 19.8546818 117.610031 19.8546818 117.610031 0.341954545 119.59451 0.341954545"></polygon>
                            <g id="Group-28" transform="translate(127.718563, 5.454545)">
                                <mask id="mask-10" fill="white">
                                    <use xlink:href="#path-9"></use>
                                </mask>
                                <g id="Clip-27"></g>
                                <path d="M8.48871976,3.64040909 C7.69935449,2.48586364 6.75737246,1.80904545 5.28192335,1.80904545 C3.98491138,1.80904545 2.7648994,2.46086364 2.7648994,3.86813636 C2.7648994,7.25177273 10.1679653,5.77268182 10.1679653,10.4376818 C10.1679653,13.1472273 8.20746228,14.8008636 5.56410299,14.8008636 C3.29790539,14.8008636 1.4683485,13.8226818 0.322108982,11.8917727 L1.89945629,10.9131364 C2.66207904,12.3440455 3.88393533,13.1472273 5.56410299,13.1472273 C7.01373174,13.1472273 8.30843832,12.3690455 8.30843832,10.7890455 C8.30843832,7.30177273 0.907677844,8.95859091 0.907677844,3.99086364 C0.907677844,1.60859091 2.89215689,0.1545 5.20584551,0.1545 C7.1663485,0.1545 8.79487545,0.956772727 9.88624671,2.56177273 L8.48871976,3.64040909" id="Fill-26" fill="#3E3A39" mask="url(#mask-10)"></path>
                            </g>
                        </g>
                    </g>
                    <g id="logo" transform="translate(0.000000, 11.000000)">
                        <polygon id="Fill-1" fill="#3E3A39" points="0 12.5047071 0 2 39.7690036 2 39.7690036 12.5047071 25.9435534 12.5047071 25.9435534 49.6700202 13.6865546 49.6700202 13.6865546 12.5047071"></polygon>
                        <g id="Group-24" transform="translate(0.000000, 0.034980)">
                            <path d="M131.5491,7.02919192 C126.922809,2.67355556 120.701357,-5.68434189e-14 113.852737,-5.68434189e-14 C99.5753421,-5.68434189e-14 88,11.5989697 88,25.907899 C88,40.2157576 99.5753421,51.815798 113.852737,51.815798 C121.063553,51.815798 127.582029,48.8542222 132.271357,44.0820808 L113.423229,25.1937374 L131.5491,7.02919192 Z" id="Fill-2" fill="url(#linearGradient-11)"></path>
                            <polygon id="Fill-4" fill="#3E3A39" points="139 18.393596 151.258067 18.393596 151.258067 2 139 2"></polygon>
                            <polygon id="Fill-6" fill="#3E3A39" points="166 18.393596 178.258067 18.393596 178.258067 2 166 2"></polygon>
                            <polygon id="Fill-7" fill="#3E3A39" points="139 49.393596 151.258067 49.393596 151.258067 33 139 33"></polygon>
                            <polygon id="Fill-8" fill="#3E3A39" points="166 49.393596 178.258067 49.393596 178.258067 33 166 33"></polygon>
                            <path d="M146.337131,25.1822626 C146.337131,28.5956768 143.575246,31.3634545 140.1691,31.3634545 C136.761885,31.3634545 134,28.5956768 134,25.1822626 C134,21.7677778 136.761885,19 140.1691,19 C143.575246,19 146.337131,21.7677778 146.337131,25.1822626" id="Fill-9" fill="url(#linearGradient-12)"></path>
                            <path d="M165.337131,25.1822626 C165.337131,28.5956768 162.575246,31.3634545 159.1691,31.3634545 C155.761885,31.3634545 153,28.5956768 153,25.1822626 C153,21.7677778 155.761885,19 159.1691,19 C162.575246,19 165.337131,21.7677778 165.337131,25.1822626" id="Fill-10" fill="url(#linearGradient-12)"></path>
                            <path d="M184.337131,25.1822626 C184.337131,28.5956768 181.575246,31.3634545 178.1691,31.3634545 C174.761885,31.3634545 172,28.5956768 172,25.1822626 C172,21.7677778 174.761885,19 178.1691,19 C181.575246,19 184.337131,21.7677778 184.337131,25.1822626" id="Fill-11" fill="url(#linearGradient-12)"></path>
                            <polyline id="Fill-12" fill="#3E3A39" points="82.2335294 25.8360808 47 49.6700202 47 2"></polyline>
                            <polygon id="Fill-13" fill="#3E3A39" points="52 2 86.9482593 2 73.7863025 16.4941616"></polygon>
                            <polygon id="Fill-14" fill="#3E3A39" points="52 49.4952323 86.9482593 49.4952323 73.7863025 35"></polygon>
                            <polygon id="Fill-15" fill="#3E3A39" points="164.902539 103.714147 164.902539 64.0048343 194.953127 64.0048343 194.953127 72.3477838 175.222479 72.3477838 175.222479 79.6735616 192.635708 79.6735616 192.635708 88.0165111 175.222479 88.0165111 175.222479 95.371198 194.953127 95.371198 194.953127 103.714147"></polygon>
                            <polygon id="Fill-16" fill="#3E3A39" points="125.726513 72.7546525 125.726513 64.0048343 158.854172 64.0048343 158.854172 72.7546525 147.338661 72.7546525 147.338661 103.714147 137.127701 103.714147 137.127701 72.7546525"></polygon>
                            <polygon id="Fill-17" fill="#3E3A39" points="236.319216 72.7546525 236.319216 64.0048343 269.446875 64.0048343 269.446875 72.7546525 257.931365 72.7546525 257.931365 103.714147 247.719336 103.714147 247.719336 72.7546525"></polygon>
                            <path d="M20.763994,83.2718869 L35.0296363,68.9768768 C31.3884358,65.5484727 26.4918331,63.4445333 21.101617,63.4445333 C9.86603481,63.4445333 0.755554622,72.5733818 0.755554622,83.8340081 C0.755554622,95.0946343 9.86603481,104.223483 21.101617,104.223483 C26.7771032,104.223483 31.9076915,101.892554 35.5980396,98.1375838 L20.763994,83.2718869 Z" id="Fill-18" fill="url(#linearGradient-13)"></path>
                            <path d="M57.5954634,95.1176545 C51.3911056,95.1176545 46.3609496,90.0767657 46.3609496,83.8591697 C46.3609496,77.6415737 51.3911056,72.6017556 57.5954634,72.6017556 C63.8008896,72.6017556 68.8299772,77.6415737 68.8299772,83.8591697 C68.8299772,90.0767657 63.8008896,95.1176545 57.5954634,95.1176545 M57.5954634,64.0039778 C46.6536987,64.0039778 37.7825462,72.8940586 37.7825462,83.8591697 C37.7825462,94.8253515 46.6536987,103.714362 57.5954634,103.714362 C68.5372281,103.714362 77.4083806,94.8253515 77.4083806,83.8591697 C77.4083806,72.8940586 68.5372281,64.0039778 57.5954634,64.0039778" id="Fill-19" fill="#3E3A39"></path>
                            <polygon id="Fill-20" fill="url(#linearGradient-13)" points="66.2420324 80.8544444 54.560916 92.5604848 48.8768824 86.8643232 60.5590672 75.1582828"></polygon>
                            <polygon id="Fill-21" fill="#3E3A39" points="83.1240396 103.714147 83.1240396 64.0048343 93.335 64.0048343 109.434064 86.7423697 109.434064 64.0048343 119.645024 64.0048343 119.645024 103.714147 109.578301 103.714147 93.335 81.1511374 93.335 103.714147"></polygon>
                            <path d="M207.806042,89.6352918 C206.745833,89.0690641 205.571341,88.2520423 204.656478,87.4748404 C198.027954,81.8397091 198.149755,72.8072242 204.778279,67.1720929 C211.406802,61.5369616 222.072912,61.4684364 228.700367,67.1035677 C230.222876,68.3969818 231.834065,70.2675071 232.038134,71.3200121 L223.938867,78.2055365 C224.999076,78.7717641 226.173568,79.588786 227.088431,80.3659879 C233.716954,86.0011192 233.595154,95.033604 226.96663,100.668735 C220.338107,106.302796 209.671996,106.372392 203.044541,100.737261 C201.522032,99.4438465 199.910844,97.5733212 199.706774,96.5208162 L207.806042,89.6352918 Z" id="Combined-Shape" fill="url(#linearGradient-14)"></path>
                        </g>
                    </g>
                    <text id="2016" fill="url(#linearGradient-13)" font-family="PingFangSC-Regular, PingFang SC" font-size="34" font-weight="normal" letter-spacing="-1.78095233">
                        <tspan x="190" y="36">201</tspan>
                        <tspan x="239.091143" y="36" letter-spacing="-1.68201053">6</tspan>
                    </text>
                </g>
            </g>
        </g>
    </g>
</svg>