<?xml version="1.0" encoding="UTF-8"?>
<svg width="110px" height="43px" viewBox="0 0 110 43" version="1.1" xmlns="http://www.w3.org/2000/svg" xmlns:xlink="http://www.w3.org/1999/xlink">
    <!-- Generator: Sketch 41 (35326) - http://www.bohemiancoding.com/sketch -->
    <title>Group</title>
    <desc>Created with Sketch.</desc>
    <defs>
        <linearGradient x1="50%" y1="0%" x2="50%" y2="100%" id="linearGradient-1">
            <stop stop-color="#FF6127" offset="0%"></stop>
            <stop stop-color="#FF2A73" offset="100%"></stop>
        </linearGradient>
        <polygon id="path-2" points="26.9257542 32.575098 22.1776681 37.2912941 19.8672485 34.9963922 24.6157688 30.2801961"></polygon>
    </defs>
    <g id="Page-1" stroke="none" stroke-width="1" fill="none" fill-rule="evenodd">
        <g id="Detail" transform="translate(-50.000000, -19.000000)">
            <g id="banner" transform="translate(0.000000, -1.000000)">
                <g id="Group" transform="translate(50.000000, 20.000000)">
                    <g id="logo">
                        <polygon id="Fill-1" fill="#3E3A39" points="15.5294118 5.52631373 15.5294118 1.29411765 31.6945319 1.29411765 31.6945319 5.52631373 26.0748271 5.52631373 26.0748271 20.4996863 21.092659 20.4996863 21.092659 5.52631373"></polygon>
                        <g id="Group-24" transform="translate(0.000000, 0.014093)">
                            <path d="M69.466342,2.83196078 C67.5858688,1.07713725 65.0570016,0 62.2732066,0 C56.4697973,0 51.7647059,4.67305882 51.7647059,10.4379216 C51.7647059,16.2023529 56.4697973,20.8758431 62.2732066,20.8758431 C65.2042258,20.8758431 67.8538254,19.6826667 69.7599216,17.7600392 L62.0986222,10.1501961 L69.466342,2.83196078 Z" id="Fill-2" fill="#2F51FF"></path>
                            <polygon id="Fill-4" fill="#3E3A39" points="72.4705882 7.89886275 77.4531906 7.89886275 77.4531906 1.29411765 72.4705882 1.29411765"></polygon>
                            <polygon id="Fill-6" fill="#3E3A39" points="82.8235294 7.89886275 87.8061317 7.89886275 87.8061317 1.29411765 82.8235294 1.29411765"></polygon>
                            <polygon id="Fill-7" fill="#3E3A39" points="72.4705882 19.5459216 77.4531906 19.5459216 77.4531906 12.9411765 72.4705882 12.9411765"></polygon>
                            <polygon id="Fill-8" fill="#3E3A39" points="82.8235294 19.5459216 87.8061317 19.5459216 87.8061317 12.9411765 82.8235294 12.9411765"></polygon>
                            <path d="M74.8970927,10.255451 C74.8970927,11.6306667 73.7744546,12.7457647 72.38994,12.7457647 C71.004991,12.7457647 69.8823529,11.6306667 69.8823529,10.255451 C69.8823529,8.87980392 71.004991,7.76470588 72.38994,7.76470588 C73.7744546,7.76470588 74.8970927,8.87980392 74.8970927,10.255451" id="Fill-9" fill="#2F51FF"></path>
                            <path d="M82.6617986,10.255451 C82.6617986,11.6306667 81.5391605,12.7457647 80.1546458,12.7457647 C78.7696969,12.7457647 77.6470588,11.6306667 77.6470588,10.255451 C77.6470588,8.87980392 78.7696969,7.76470588 80.1546458,7.76470588 C81.5391605,7.76470588 82.6617986,8.87980392 82.6617986,10.255451" id="Fill-10" fill="#2F51FF"></path>
                            <path d="M90.4265044,10.255451 C90.4265044,11.6306667 89.3038663,12.7457647 87.9193517,12.7457647 C86.5344028,12.7457647 85.4117647,11.6306667 85.4117647,10.255451 C85.4117647,8.87980392 86.5344028,7.76470588 87.9193517,7.76470588 C89.3038663,7.76470588 90.4265044,8.87980392 90.4265044,10.255451" id="Fill-11" fill="#2F51FF"></path>
                            <polyline id="Fill-12" fill="#3E3A39" points="49.2627381 10.8973333 34.9411765 20.4996863 34.9411765 1.29411765"></polyline>
                            <polygon id="Fill-13" fill="#3E3A39" points="36.2352941 1.29411765 50.4409005 1.29411765 45.0908893 7.13360784"></polygon>
                            <polygon id="Fill-14" fill="#3E3A39" points="36.2352941 20.0752157 50.4409005 20.0752157 45.0908893 14.2352941"></polygon>
                            <polygon id="Fill-15" fill="#3E3A39" points="67.0288194 41.7849451 67.0288194 25.7866314 79.2436431 25.7866314 79.2436431 29.1478863 71.2236207 29.1478863 71.2236207 32.0993373 78.3016694 32.0993373 78.3016694 35.4605922 71.2236207 35.4605922 71.2236207 38.4236902 79.2436431 38.4236902 79.2436431 41.7849451"></polygon>
                            <polygon id="Fill-16" fill="#3E3A39" points="51.1047298 29.3118078 51.1047298 25.7866314 64.5703071 25.7866314 64.5703071 29.3118078 59.8895359 29.3118078 59.8895359 41.7849451 55.739032 41.7849451 55.739032 29.3118078"></polygon>
                            <polygon id="Fill-17" fill="#3E3A39" points="96.0579391 29.3118078 96.0579391 25.7866314 109.523516 25.7866314 109.523516 29.3118078 104.842745 29.3118078 104.842745 41.7849451 100.691807 41.7849451 100.691807 29.3118078"></polygon>
                            <path d="M8.44005199,33.549051 L14.2386841,27.7897961 C12.7586258,26.4085412 10.7682775,25.5608941 8.57728744,25.5608941 C4.01030008,25.5608941 0.307114339,29.2387765 0.307114339,33.7755216 C0.307114339,38.3122667 4.01030008,41.990149 8.57728744,41.990149 C10.8842328,41.990149 12.9696905,41.051051 14.4697261,39.5382275 L8.44005199,33.549051 Z" id="Fill-18" fill="#2F51FF"></path>
                            <path d="M23.4111369,38.3215412 C20.8892183,38.3215412 18.8445838,36.2906392 18.8445838,33.7856588 C18.8445838,31.2806784 20.8892183,29.2502078 23.4111369,29.2502078 C25.9334897,29.2502078 27.9776899,31.2806784 27.9776899,33.7856588 C27.9776899,36.2906392 25.9334897,38.3215412 23.4111369,38.3215412 M23.4111369,25.7862863 C18.9635791,25.7862863 15.3576742,29.3679725 15.3576742,33.7856588 C15.3576742,38.2037765 18.9635791,41.7850314 23.4111369,41.7850314 C27.8586947,41.7850314 31.4645996,38.2037765 31.4645996,33.7856588 C31.4645996,29.3679725 27.8586947,25.7862863 23.4111369,25.7862863" id="Fill-19" fill="#3E3A39"></path>
                            <g id="Fill-20">
                                <use fill="url(#linearGradient-1)" xlink:href="#path-2"></use>
                                <use fill="#2F51FF" xlink:href="#path-2"></use>
                            </g>
                            <polygon id="Fill-21" fill="#3E3A39" points="33.7878742 41.7849451 33.7878742 25.7866314 37.938378 25.7866314 44.4822507 34.9472588 44.4822507 25.7866314 48.6327545 25.7866314 48.6327545 41.7849451 44.5408798 41.7849451 37.938378 32.6946314 37.938378 41.7849451"></polygon>
                            <path d="M84.4680364,36.1127757 C84.0370873,35.8846507 83.5596854,35.5554843 83.1878161,35.2423608 C80.4934846,32.9720471 80.5429936,29.3329882 83.2373251,27.0626745 C85.9316565,24.7923608 90.2671676,24.7647529 92.9610648,27.0350667 C93.5799272,27.5561647 94.2348356,28.3097725 94.3177849,28.7338118 L91.0256321,31.507891 C91.4565811,31.736016 91.933983,32.0651824 92.3058524,32.3783059 C95.0001838,34.6486196 94.9506748,38.2876784 92.2563434,40.5579922 C89.5620119,42.8278745 85.2265008,42.8559137 82.5326036,40.5856 C81.9137412,40.064502 81.2588328,39.3108941 81.1758835,38.8868549 L84.4680364,36.1127757 Z" id="Combined-Shape" fill="#2F51FF"></path>
                        </g>
                    </g>
                </g>
            </g>
        </g>
    </g>
</svg>